<svg width="33" height="33" viewBox="0 0 33 33" fill="none" xmlns="http://www.w3.org/2000/svg">
<path opacity="0.8" fill-rule="evenodd" clip-rule="evenodd" d="M16.5001 0.822998C17.1041 0.822998 17.5938 1.31269 17.5938 1.91675V4.83341C17.5938 5.43747 17.1041 5.92716 16.5001 5.92716C15.896 5.92716 15.4063 5.43747 15.4063 4.83341V1.91675C15.4063 1.31269 15.896 0.822998 16.5001 0.822998ZM0.822998 16.5001C0.822998 15.896 1.31269 15.4063 1.91675 15.4063H4.83341C5.43747 15.4063 5.92716 15.896 5.92716 16.5001C5.92716 17.1041 5.43747 17.5938 4.83341 17.5938H1.91675C1.31269 17.5938 0.822998 17.1041 0.822998 16.5001ZM27.073 16.5001C27.073 15.896 27.5627 15.4063 28.1667 15.4063H31.0834C31.6875 15.4063 32.1772 15.896 32.1772 16.5001C32.1772 17.1041 31.6875 17.5938 31.0834 17.5938H28.1667C27.5627 17.5938 27.073 17.1041 27.073 16.5001ZM16.5001 27.073C17.1041 27.073 17.5938 27.5627 17.5938 28.1667V31.0834C17.5938 31.6875 17.1041 32.1772 16.5001 32.1772C15.896 32.1772 15.4063 31.6875 15.4063 31.0834V28.1667C15.4063 27.5627 15.896 27.073 16.5001 27.073Z" fill="white"/>
</svg>
