<!DOCTYPE svg PUBLIC "-//W3C//DTD SVG 1.1//EN" "http://www.w3.org/Graphics/SVG/1.1/DTD/svg11.dtd">
<!-- Uploaded to: SVG Repo, www.svgrepo.com, Transformed by: SVG Repo Mixer Tools -->
<svg fill="#ffffff" height="800px" width="800px" version="1.1" id="Layer_1" xmlns="http://www.w3.org/2000/svg" xmlns:xlink="http://www.w3.org/1999/xlink" viewBox="0 0 511.998 511.998" xml:space="preserve" stroke="#ffffff">
<g id="SVGRepo_bgCarrier" stroke-width="0"/>
<g id="SVGRepo_tracerCarrier" stroke-linecap="round" stroke-linejoin="round"/>
<g id="SVGRepo_iconCarrier"> <g> <g> <g> <path d="M281.358,304.231c-7.246-7.247-19.038-7.247-26.285,0.001c-1.581,1.581-4.337,1.582-5.919-0.001l-22.427-22.427 c-0.791-0.79-1.225-1.841-1.225-2.96c0-1.118,0.436-2.169,1.225-2.959c7.245-7.246,7.246-19.038,0.001-26.285 c-0.001,0-0.001-0.001-0.001-0.001l-5.672-5.672c-7.247-7.248-19.039-7.245-26.285,0l-37.876,37.876 c-7.248,7.248-7.248,19.039,0,26.286l5.671,5.671c3.511,3.512,8.178,5.446,13.144,5.446c4.964,0,9.632-1.933,13.143-5.445 c1.582-1.582,4.338-1.581,5.919,0l22.427,22.428c0.791,0.79,1.225,1.841,1.225,2.959s-0.435,2.169-1.225,2.959 c-3.511,3.511-5.444,8.178-5.444,13.143s1.933,9.633,5.444,13.143l5.672,5.674c3.624,3.624,8.382,5.435,13.143,5.435 c4.76-0.001,9.52-1.812,13.144-5.435l37.877-37.877c7.245-7.248,7.245-19.039,0-26.284L281.358,304.231z M275.708,324.868 l-37.876,37.876c-1.003,1.005-2.639,1.004-3.643,0.001l-5.672-5.673c-0.656-0.655-0.754-1.422-0.754-1.821 c0-0.398,0.098-1.165,0.755-1.821c3.815-3.815,5.914-8.886,5.914-14.281c0-5.396-2.101-10.467-5.915-14.282L206.09,302.44 c-3.815-3.814-8.886-5.914-14.281-5.914s-10.466,2.101-14.281,5.915c-0.656,0.656-1.423,0.755-1.821,0.755 c-0.399,0-1.164-0.098-1.821-0.756l-5.672-5.671c-1.004-1.003-1.004-2.639,0-3.642l37.876-37.876c1.004-1.004,2.64-1.004,3.644,0 l5.672,5.671c1.003,1.004,1.003,2.639,0,3.643c-3.815,3.815-5.915,8.886-5.915,14.281c0,5.396,2.101,10.467,5.915,14.282 l22.427,22.426c3.814,3.815,8.886,5.917,14.282,5.917c5.395,0,10.467-2.102,14.281-5.915c1.004-1.003,2.64-1.003,3.643-0.001 l5.673,5.673C276.713,322.229,276.713,323.864,275.708,324.868z"/> <path d="M314.756,143.544c-12.299-0.208-23.877,4.424-32.633,13.034c-6.968,6.853-11.446,15.539-12.984,24.99 c-9.451,1.537-18.136,6.015-24.99,12.984c-8.609,8.755-13.239,20.343-13.033,32.631c0.412,24.629,21.069,44.666,46.048,44.666 h68.516c7.576,0,13.74-6.163,13.74-13.739v-68.517C359.42,164.613,339.383,143.956,314.756,143.544z M343.41,255.837h-66.245 c-16.298,0-29.774-12.974-30.039-28.922c-0.133-7.962,2.865-15.469,8.44-21.138c5.578-5.671,13.031-8.795,20.984-8.795 c4.421,0,8.005-3.583,8.005-8.005c0-7.953,3.123-15.407,8.795-20.984c5.549-5.456,12.858-8.444,20.63-8.444 c0.169,0,0.338,0.001,0.508,0.004c15.948,0.267,28.922,13.743,28.922,30.039V255.837z"/> <path d="M502.225,237.493L292.309,27.578c-13.011-13.009-34.186-13.011-47.201,0L46.502,226.185 c-6.304,6.304-9.775,14.686-9.775,23.6c0,8.915,3.471,17.296,9.775,23.6l1.878,1.876l-23.236,23.236 c-33.526,33.527-33.526,88.078,0,121.604l48.928,48.928c16.217,16.217,37.81,25.149,60.801,25.149 c22.991,0,44.585-8.931,60.8-25.149l23.236-23.236l37.507,37.507c6.508,6.507,15.052,9.759,23.6,9.759 c8.546,0,17.094-3.254,23.6-9.759l198.606-198.605c6.304-6.304,9.775-14.686,9.775-23.601 C512,252.179,508.529,243.798,502.225,237.493z M184.353,457.707c-13.193,13.193-30.765,20.46-49.48,20.46 c-18.714,0-36.287-7.267-49.48-20.46l-48.928-48.928c-27.283-27.283-27.283-71.676,0-98.959l23.236-23.236l19.745,19.744 L56.21,329.563c-7.933,7.933-12.301,18.492-12.301,29.736c0,11.243,4.369,21.803,12.301,29.735l48.927,48.928 c7.933,7.934,18.492,12.302,29.735,12.302c11.244,0,21.803-4.369,29.735-12.301l23.236-23.236l19.743,19.743L184.353,457.707z M90.767,317.65l85.756,85.756l-23.237,23.237c-4.908,4.909-11.448,7.612-18.413,7.612c-6.966,0-13.506-2.703-18.415-7.613 l-48.927-48.928c-4.909-4.908-7.612-11.448-7.612-18.413c0-6.967,2.703-13.507,7.612-18.415L90.767,317.65z M490.903,273.373 L292.297,471.978c-6.769,6.771-17.787,6.771-24.557,0L57.824,262.063c-3.28-3.279-5.086-7.639-5.086-12.278 c0-4.639,1.806-8.999,5.086-12.278L256.429,38.901c6.77-6.77,17.787-6.773,24.558,0l209.915,209.915 C497.674,255.586,497.674,266.603,490.903,273.373z"/> </g> </g> </g> </g>
</svg>